<?xml version="1.0" encoding="utf-8"?>
<!-- Generator: Avocode 2.6.0 - http://avocode.com -->
<svg height="62" width="63" xmlns:xlink="http://www.w3.org/1999/xlink" xmlns="http://www.w3.org/2000/svg" viewBox="0 0 63 62">
    <path fill="#646464" fill-rule="evenodd" d="M 31.25 62 C 48.37 62 62.25 48.12 62.25 31 C 62.25 13.88 48.37 0 31.25 0 C 14.13 0 0.25 13.88 0.25 31 C 0.25 48.12 14.13 62 31.25 62 Z M 31.25 62" />
    <path fill="#646464" fill-rule="evenodd" d="M 31.25 60.71 C 47.54 60.71 60.75 47.5 60.75 31.21 C 60.75 14.92 47.54 1.71 31.25 1.71 C 14.96 1.71 1.75 14.92 1.75 31.21 C 1.75 47.5 14.96 60.71 31.25 60.71 Z M 31.25 60.71" />
    <path stroke-linejoin="miter" stroke-linecap="butt" stroke-width="1" stroke="#979797" fill="#d8d8d8" fill-rule="evenodd" d="M 5.6 22.61 L 5.6 47.65 C 5.6 47.65 12.47 61.5 30.18 61.5 C 47.9 61.5 57.4 47.65 57.4 47.65 L 57.4 22.61 L 42.75 22.61 C 41.3 18.08 36.79 14.77 31.44 14.77 C 26.09 14.77 21.58 18.08 20.13 22.61 L 5.6 22.61 Z M 33.01 21.04 C 33.01 20.18 32.31 19.47 31.44 19.47 C 30.57 19.47 29.87 20.18 29.87 21.04 C 29.87 21.91 30.57 22.61 31.44 22.61 C 32.31 22.61 33.01 21.91 33.01 21.04 Z M 33.01 21.04" />
    <path stroke-linejoin="miter" stroke-linecap="butt" stroke-width="0" stroke="#979797" fill="#ffffff" fill-rule="evenodd" d="M 10.04 28.02 L 52.96 28.02 L 52.96 52.51 C 52.96 52.51 43.98 61.36 31.5 61.36 C 19.02 61.36 10.04 51.56 10.04 51.56 L 10.04 28.02 Z M 10.04 28.02" />
    <path stroke-linejoin="miter" stroke-linecap="square" stroke-width="1" stroke="#979797" fill="none" fill-rule="evenodd" d="M 15.7 35.95 L 47.18 35.95" />
    <path stroke-linejoin="miter" stroke-linecap="square" stroke-width="1" stroke="#979797" fill="none" fill-rule="evenodd" d="M 15.76 52.78 L 47.24 52.78" />
    <path stroke-linejoin="miter" stroke-linecap="square" stroke-width="1" stroke="#979797" fill="none" fill-rule="evenodd" d="M 15.7 43.79 L 47.18 43.79" />
    <path stroke-linejoin="miter" stroke-linecap="square" stroke-width="1" stroke="#979797" fill="none" fill-rule="evenodd" d="M 25.5 60.62 L 37.5 60.62" />
</svg>