<?xml version="1.0" encoding="UTF-8"?>
<svg width="358px" height="170px" viewBox="0 0 358 170" version="1.1" xmlns="http://www.w3.org/2000/svg" xmlns:xlink="http://www.w3.org/1999/xlink">
    <!-- Generator: Sketch 41 (35326) - http://www.bohemiancoding.com/sketch -->
    <title>Artboard</title>
    <desc>Created with Sketch.</desc>
    <defs></defs>
    <g id="Page-1" stroke="none" stroke-width="1" fill="none" fill-rule="evenodd">
        <g id="Artboard">
            <text id="z" font-family="Futura-Medium, Futura" font-size="94.4444444" font-weight="400" letter-spacing="-3.82022456" fill="#8BC53B">
                <tspan x="258.148148" y="109.54321">z</tspan>
            </text>
            <text id="m" font-family="Futura-Medium, Futura" font-size="94.4444444" font-weight="400" letter-spacing="-3.82022456" fill="#8BC53B">
                <tspan x="170" y="109.54321">m</tspan>
            </text>
            <text id="t" font-family="Futura-Medium, Futura" font-size="94.4444444" font-weight="400" letter-spacing="-3.82022456" fill="#8BC53B">
                <tspan x="130.123457" y="109.54321">t</tspan>
            </text>
            <text id="i" font-family="Futura-Medium, Futura" font-size="94.4444444" font-weight="400" letter-spacing="-3.82022456" fill="#8BC53B">
                <tspan x="237.160494" y="109.54321">i</tspan>
            </text>
            <g id="Group" transform="translate(-3.148148, 11.543210)" font-size="94.4444444" font-family="Futura-Medium, Futura" letter-spacing="-3.82022456" fill="#8BC53B" font-weight="400">
                <text id="O">
                    <tspan x="0" y="98">O</tspan>
                </text>
                <text id="p">
                    <tspan x="79.7530864" y="98">p</tspan>
                </text>
            </g>
            <polygon id="t" fill="#8BC53B" points="344.654586 73.9035976 344.654586 109.135802 334.27861 109.135802 334.27861 73.9035976 330.901838 73.9035976 330.901838 64.2193528 334.27861 64.2193528 334.27861 47.7561367 344.654586 47.7561367 344.654586 64.2193528 355.740741 64.2193528 355.740741 73.9035976"></polygon>
            <path d="M171.980915,64.0123457 C171.980915,64.0123457 168.500087,75.4475652 168.500087,86.8142373 C168.500087,98.1809093 171.980915,108.928795 171.980915,108.928795 L161.604938,108.928795 C161.604938,108.928795 158.124111,97.90579 158.124111,86.8142373 C158.124111,75.7226845 161.604938,64.0123457 161.604938,64.0123457 L171.980915,64.0123457 Z" id="i" fill="#8BC53B"></path>
            <path d="M325.190791,64.0123457 C325.190791,64.0123457 321.709964,75.4475652 321.709964,86.8142373 C321.709964,98.1809093 325.190791,108.928795 325.190791,108.928795 L314.814815,108.928795 C314.814815,108.928795 311.333987,97.90579 311.333987,86.8142373 C311.333987,75.7226845 314.814815,64.0123457 314.814815,64.0123457 L325.190791,64.0123457 Z" id="i" fill="#8BC53B" transform="translate(318.262389, 86.470571) scale(-1, 1) translate(-318.262389, -86.470571) "></path>
            <path d="M312.931049,119.900677 C311.751172,118.91499 287.555678,158.45481 241.552447,156.691237 C195.549215,154.927664 178.775668,119.262052 178.775668,119.262052 C178.775668,119.262052 175.159039,113.53821 170.445743,116.894188 C165.732447,120.250166 170.214602,125.78145 170.214602,125.78145 C170.214602,125.78145 191.171907,167.901235 241.552447,167.901235 C291.932986,167.901235 314.110925,120.886364 312.931049,119.900677 Z" id="Path-2" fill="#5F6062"></path>
            <path d="M316.079197,6.56734366 C314.89932,5.58165676 290.703827,45.121477 244.700595,43.3579039 C198.697363,41.5943308 181.923816,5.9287191 181.923816,5.9287191 C181.923816,5.9287191 178.307187,0.204876295 173.593891,3.56085464 C168.880595,6.91683298 173.36275,12.4481167 173.36275,12.4481167 C173.36275,12.4481167 194.320055,54.5679012 244.700595,54.5679012 C295.081134,54.5679012 317.259073,7.55303056 316.079197,6.56734366 Z" id="Path-2-Copy" fill="#8BC53B" transform="translate(243.780630, 28.536898) scale(-1, -1) translate(-243.780630, -28.536898) "></path>
        </g>
    </g>
</svg>